<svg width="38" height="194" viewBox="0 0 38 194" fill="none" xmlns="http://www.w3.org/2000/svg">
<path d="M18.6186 32.3032L9.30904 16.1516L-0.000546492 -3.7591e-05L18.6186 -3.59633e-05L37.2754 -3.43323e-05L27.9656 16.1516L18.6186 32.3032Z" fill="#00AFE1"/>
<path d="M18.6186 64.6066L9.30904 48.4549L-0.000546492 32.3033L18.6186 32.3033L37.2754 32.3033L27.9656 48.4549L18.6186 64.6066Z" fill="#00AFE1"/>
<path d="M18.6186 96.9098L9.30904 80.7582L-0.000546492 64.6065L18.6186 64.6065L37.2754 64.6065L27.9656 80.7582L18.6186 96.9098Z" fill="#00AFE1"/>
<path d="M18.6186 129.213L9.30904 113.061L-0.000546492 96.9098L18.6186 96.9098L37.2754 96.9098L27.9656 113.061L18.6186 129.213Z" fill="#00AFE1"/>
<path d="M18.6186 161.516L9.30904 145.365L-0.000546492 129.213L18.6186 129.213L37.2754 129.213L27.9656 145.365L18.6186 161.516Z" fill="#00AFE1"/>
<path d="M18.6186 193.82L9.30904 177.668L-0.000546492 161.516L18.6186 161.516L37.2754 161.516L27.9656 177.668L18.6186 193.82Z" fill="#00AFE1"/>
</svg>
