<svg width="149" height="140" viewBox="0 0 149 140" fill="none" xmlns="http://www.w3.org/2000/svg">
<g clip-path="url(#clip0_4022_3)">
<path d="M69.7559 22.6588C43.4595 22.6588 22.1719 43.9464 22.1719 70.2428C22.1719 96.5393 43.4595 117.827 69.7559 117.827C96.0524 117.827 117.34 96.5393 117.34 70.2428C117.34 43.9464 96.0524 22.6588 69.7559 22.6588ZM101.218 45.3551C97.9307 45.6682 94.6437 45.9812 91.2001 46.1377C89.9479 46.2943 88.5391 46.2943 87.1304 46.4508C85.8782 40.9724 84.1564 35.9635 82.1215 32.0503C89.7913 34.5548 96.3654 39.2506 101.218 45.3551ZM69.7559 110.47C66.6254 110.47 62.5557 104.366 59.8948 93.8783C66.4689 93.7218 73.043 93.7218 79.4606 93.8783C76.9562 104.366 72.8865 110.47 69.7559 110.47ZM58.486 86.3651C57.8599 82.6084 57.5469 78.3822 57.3903 73.9995H82.1215C81.965 78.5387 81.652 82.6084 81.0259 86.3651C73.5126 86.2085 65.9993 86.2085 58.486 86.3651ZM69.7559 30.0155C72.8865 30.0155 76.9562 36.12 79.6171 46.6073C76.4866 46.7638 73.1995 46.7638 69.7559 46.7638C66.4689 46.7638 63.1818 46.7638 59.8948 46.6073C62.5557 36.12 66.6254 30.0155 69.7559 30.0155ZM69.7559 54.2771C73.6691 54.2771 77.2692 54.2771 81.0259 54.1206C81.652 57.8772 81.965 62.1034 82.1215 66.4862H57.3903C57.5469 61.9469 57.8599 57.8772 58.486 54.1206C62.2427 54.2771 65.9993 54.2771 69.7559 54.2771ZM50.0336 66.4862H29.8417C30.3113 61.4773 31.72 56.625 33.9114 52.3988C38.4506 52.8684 43.1464 53.338 47.9988 53.651C49.0944 53.651 50.1901 53.8075 51.2858 53.8075C50.5032 57.8772 50.1901 62.26 50.0336 66.4862ZM50.0336 73.9995C50.1901 78.3822 50.5032 82.6084 51.1293 86.8346C50.0336 86.8346 48.9379 86.9912 47.9988 86.9912C43.303 87.3042 38.6072 87.6173 33.9114 88.2434C31.72 83.8606 30.3113 79.1648 29.8417 74.156H50.0336V73.9995ZM89.4783 73.9995H109.67C109.201 79.0083 107.792 83.8606 105.601 88.0869C101.061 87.6173 96.3655 87.1477 91.6697 86.8346C90.574 86.8346 89.4783 86.6781 88.3826 86.6781C89.0087 82.6084 89.4783 78.3822 89.4783 73.9995ZM89.4783 66.4862C89.3218 62.1034 89.0087 57.8772 88.3826 53.8075C89.4783 53.8075 90.574 53.651 91.6697 53.651C96.522 53.338 101.218 52.8684 105.601 52.3988C107.792 56.7815 109.201 61.4773 109.67 66.4862H89.4783ZM57.5469 32.0503C55.3555 35.9635 53.6337 40.9724 52.538 46.4508C51.1293 46.4508 49.7205 46.2943 48.4683 46.2943C45.0247 46.1377 41.7377 45.8247 38.4506 45.5116C43.1464 39.2506 49.8771 34.5548 57.5469 32.0503ZM38.2941 95.1305C41.5812 94.8175 45.0248 94.5044 48.3118 94.3479C49.7205 94.1914 50.9728 94.1914 52.3815 94.1914C53.6337 99.6698 55.3555 104.679 57.3903 108.592C49.8771 106.087 43.1464 101.392 38.2941 95.1305ZM82.1215 108.435C84.3129 104.522 85.8782 99.5133 87.1304 94.0349C88.5391 94.0349 89.9479 94.1914 91.3566 94.1914C94.8002 94.3479 98.0872 94.661 101.374 94.974C96.3655 101.235 89.7913 106.087 82.1215 108.435Z" fill="#9A9A9A"/>
<path d="M148.331 62.8859C147.862 61.9467 146.766 61.3206 145.671 61.3206H140.036C138.157 47.0767 131.896 33.3024 122.035 22.8151C110.139 9.97991 93.5472 1.68401 76.3292 0.275268C59.1113 -1.29 41.2673 3.87538 27.6495 14.3627C13.8752 24.8499 4.1705 40.5026 1.1965 57.4075C-2.09056 74.3123 1.50955 92.3129 10.5881 106.87C19.6666 121.427 34.2236 132.384 50.8154 137.079C67.2507 141.775 85.4078 139.897 100.591 132.384C108.104 128.471 114.991 123.305 120.783 117.044C126.418 110.626 130.957 103.426 134.088 95.4434C134.714 94.0347 133.931 92.3129 132.522 91.6868C131.114 91.0607 129.392 91.8433 128.766 93.252C125.792 100.452 121.722 107.183 116.4 112.974C111.078 118.609 104.817 123.305 97.7734 126.905C83.8425 133.792 67.4072 135.201 52.5372 130.818C37.6672 126.592 24.6755 116.574 16.5361 103.426C8.55325 89.965 5.57924 73.8427 8.55325 58.8162C11.3707 43.7896 20.1362 29.8588 32.3453 20.7802C44.5544 11.5452 60.207 7.16244 75.3901 8.7277C90.5732 10.1364 104.974 17.4932 115.148 28.7631C123.287 37.8416 128.609 49.2681 130.331 61.3206H126.105C125.009 61.3206 123.913 61.9467 123.444 62.8859C122.818 63.825 122.974 65.0773 123.6 66.0164L133.305 81.043C133.931 81.9821 134.87 82.4517 135.966 82.4517C137.062 82.4517 138.001 81.9821 138.627 81.043L148.331 66.0164C148.801 65.2338 148.801 63.9816 148.331 62.8859Z" fill="#9A9A9A"/>
<path d="M69.1339 22C42.8374 22 21.5498 43.2876 21.5498 69.5841C21.5498 95.8805 42.8374 117.168 69.1339 117.168C95.4303 117.168 116.718 95.8805 116.718 69.5841C116.718 43.2876 95.4303 22 69.1339 22ZM100.596 44.6964C97.3086 45.0094 94.0216 45.3225 90.578 45.479C89.3258 45.6355 87.9171 45.6355 86.5083 45.792C85.2561 40.3136 83.5343 35.3048 81.4995 31.3916C89.1693 33.896 95.7434 38.5918 100.596 44.6964ZM69.1339 109.811C66.0033 109.811 61.9337 103.707 59.2727 93.2196C65.8468 93.063 72.4209 93.063 78.8385 93.2196C76.3341 103.707 72.2644 109.811 69.1339 109.811ZM57.864 85.7063C57.2379 81.9497 56.9248 77.7235 56.7683 73.3407H81.4995C81.3429 77.88 81.0299 81.9497 80.4038 85.7063C72.8905 85.5498 65.3772 85.5498 57.864 85.7063ZM69.1339 29.3567C72.2644 29.3567 76.3341 35.4613 78.995 45.9486C75.8645 46.1051 72.5775 46.1051 69.1339 46.1051C65.8468 46.1051 62.5598 46.1051 59.2727 45.9486C61.9337 35.4613 66.0033 29.3567 69.1339 29.3567ZM69.1339 53.6184C73.047 53.6184 76.6471 53.6184 80.4038 53.4618C81.0299 57.2185 81.3429 61.4447 81.4995 65.8274H56.7683C56.9248 61.2882 57.2379 57.2185 57.864 53.4618C61.6206 53.6184 65.3772 53.6184 69.1339 53.6184ZM49.4115 65.8274H29.2196C29.6892 60.8186 31.0979 55.9663 33.2893 51.74C37.8286 52.2096 42.5244 52.6792 47.3767 52.9923C48.4724 52.9923 49.5681 53.1488 50.6637 53.1488C49.8811 57.2185 49.5681 61.6012 49.4115 65.8274ZM49.4115 73.3407C49.5681 77.7235 49.8811 81.9497 50.5072 86.1759C49.4115 86.1759 48.3158 86.3324 47.3767 86.3324C42.6809 86.6455 37.9851 86.9585 33.2893 87.5846C31.0979 83.2019 29.6892 78.5061 29.2196 73.4972H49.4115V73.3407ZM88.8562 73.3407H109.048C108.579 78.3496 107.17 83.2019 104.978 87.4281C100.439 86.9585 95.7434 86.4889 91.0476 86.1759C89.9519 86.1759 88.8562 86.0194 87.7605 86.0194C88.3866 81.9497 88.8562 77.7235 88.8562 73.3407ZM88.8562 65.8274C88.6997 61.4447 88.3866 57.2185 87.7605 53.1488C88.8562 53.1488 89.9519 52.9923 91.0476 52.9923C95.8999 52.6792 100.596 52.2096 104.978 51.74C107.17 56.1228 108.579 60.8186 109.048 65.8274H88.8562ZM56.9248 31.3916C54.7334 35.3048 53.0116 40.3136 51.916 45.792C50.5072 45.792 49.0985 45.6355 47.8463 45.6355C44.4027 45.479 41.1156 45.1659 37.8286 44.8529C42.5244 38.5918 49.255 33.896 56.9248 31.3916ZM37.672 94.4718C40.9591 94.1587 44.4027 93.8457 47.6897 93.6891C49.0985 93.5326 50.3507 93.5326 51.7594 93.5326C53.0116 99.0111 54.7334 104.02 56.7683 107.933C49.255 105.429 42.5244 100.733 37.672 94.4718ZM81.4995 107.777C83.6908 103.863 85.2561 98.8545 86.5083 93.3761C87.9171 93.3761 89.3258 93.5326 90.7345 93.5326C94.1781 93.6891 97.4652 94.0022 100.752 94.3153C95.7434 100.576 89.1693 105.429 81.4995 107.777Z" fill="#00AFE1"/>
</g>
<defs>
<clipPath id="clip0_4022_3">
<rect width="148.68" height="139.64" fill="white"/>
</clipPath>
</defs>
</svg>
